<?xml version="1.0" standalone="no"?>
<!DOCTYPE svg PUBLIC "-//W3C//DTD SVG 20010904//EN"
 "http://www.w3.org/TR/2001/REC-SVG-20010904/DTD/svg10.dtd">
<svg version="1.0" xmlns="http://www.w3.org/2000/svg"
 width="1536.000000pt" height="1536.000000pt" viewBox="0 0 1536.000000 1536.000000"
 preserveAspectRatio="xMidYMid meet">
<metadata>
Created by potrace 1.10, written by Peter Selinger 2001-2011
</metadata>
<g transform="translate(0.000000,1536.000000) scale(0.100000,-0.100000)"
fill="#000000" stroke="none">
<path d="M6375 14489 c-22 -6 -87 -14 -145 -19 -101 -9 -128 -13 -290 -46
-190 -38 -461 -115 -668 -189 -61 -22 -378 -166 -459 -208 -88 -46 -436 -261
-457 -282 -20 -21 -90 -73 -150 -113 -102 -69 -471 -420 -579 -551 -33 -40
-76 -90 -95 -110 -18 -20 -45 -54 -59 -76 -14 -22 -51 -74 -82 -115 -49 -65
-119 -170 -158 -235 -87 -148 -150 -263 -182 -329 -58 -119 -101 -214 -101
-221 0 -4 -32 -82 -90 -220 -8 -19 -61 -194 -75 -245 -3 -14 -17 -65 -30 -115
-104 -398 -148 -811 -126 -1183 7 -114 16 -236 22 -272 5 -36 14 -105 19 -155
13 -133 34 -251 75 -430 21 -88 41 -178 45 -200 11 -57 30 -133 46 -185 8 -25
14 -53 14 -63 0 -9 4 -25 9 -35 5 -9 17 -42 26 -72 30 -105 147 -465 156 -483
5 -9 16 -39 25 -65 9 -26 22 -60 29 -77 32 -75 124 -304 138 -345 19 -57 41
-106 169 -378 26 -57 48 -107 48 -110 0 -5 36 -80 245 -502 28 -58 72 -141 97
-185 25 -44 60 -109 78 -145 44 -89 44 -90 123 -225 38 -65 88 -153 110 -195
22 -41 87 -152 144 -247 56 -94 103 -173 103 -176 0 -3 22 -38 48 -79 40 -60
141 -224 170 -275 12 -22 394 -607 447 -685 36 -53 132 -192 166 -238 21 -30
39 -60 39 -66 0 -6 7 -17 15 -24 15 -12 115 -150 201 -277 26 -37 63 -89 83
-115 20 -26 63 -86 96 -133 33 -48 87 -121 119 -163 33 -42 89 -117 125 -167
36 -50 89 -120 116 -154 28 -34 68 -88 90 -120 35 -51 86 -116 199 -255 17
-21 33 -41 36 -45 3 -4 34 -29 70 -58 81 -63 151 -103 183 -103 14 0 44 -7 67
-15 54 -19 173 -19 236 0 27 8 59 15 72 15 13 0 43 11 67 25 43 23 163 113
195 145 18 19 140 177 231 301 36 49 86 115 112 146 49 61 103 135 379 517 92
127 205 282 250 344 46 62 92 128 103 147 19 33 119 179 177 260 16 22 89 131
161 242 73 111 173 264 222 340 50 76 95 147 101 159 20 37 94 158 145 234 27
41 52 82 56 90 3 8 54 94 111 190 58 96 122 207 142 245 20 39 70 127 110 195
40 69 91 160 112 203 21 43 59 115 85 160 26 45 65 120 89 167 178 361 254
517 254 523 0 6 26 64 128 280 27 56 56 120 64 142 9 22 44 112 78 200 35 88
68 174 75 190 7 17 20 50 30 75 9 25 23 59 30 75 7 17 16 41 18 55 3 14 25 84
50 155 25 72 59 177 77 235 17 58 35 114 39 125 11 26 30 99 40 150 5 22 13
60 20 85 111 438 160 788 183 1285 5 113 -31 479 -68 685 -33 185 -116 517
-150 598 -8 18 -14 39 -14 47 0 9 -4 23 -10 33 -12 22 -90 210 -90 217 0 3
-14 36 -31 73 -17 37 -43 92 -56 122 -24 51 -166 306 -205 368 -10 15 -21 34
-25 42 -9 19 -60 92 -145 207 -37 51 -68 96 -68 100 0 4 -19 28 -43 53 -23 25
-74 84 -113 130 -121 144 -458 464 -569 540 -27 19 -64 46 -81 60 -17 14 -40
32 -51 41 -51 41 -381 247 -476 296 -84 44 -399 187 -459 208 -105 38 -180 61
-378 119 -87 25 -213 55 -310 74 -30 6 -89 18 -130 26 -41 9 -100 16 -130 16
-30 1 -91 7 -135 15 -93 17 -682 20 -750 4z m650 -1300 c28 -5 82 -13 120 -18
195 -26 412 -80 570 -142 72 -28 135 -54 140 -58 6 -4 46 -23 90 -41 79 -33
332 -180 430 -249 77 -55 226 -174 265 -213 192 -192 248 -256 395 -454 82
-111 270 -442 294 -519 11 -36 20 -60 67 -190 54 -150 112 -366 119 -448 4
-39 11 -88 16 -108 13 -52 19 -433 9 -584 -15 -230 -60 -462 -123 -630 -8 -22
-31 -87 -52 -144 -40 -114 -128 -298 -193 -403 -22 -36 -50 -85 -63 -109 -65
-129 -417 -536 -551 -637 -248 -188 -339 -247 -560 -360 -174 -89 -326 -147
-541 -206 -31 -9 -81 -22 -110 -30 -196 -55 -628 -81 -889 -53 -181 20 -272
37 -458 89 -263 73 -358 111 -642 261 -233 123 -557 385 -721 584 -143 175
-227 286 -289 388 -76 122 -184 338 -216 430 -11 33 -34 94 -50 135 -44 107
-103 354 -127 525 -24 171 -28 658 -6 744 5 20 12 69 16 108 7 81 66 302 115
433 17 47 42 117 55 157 22 65 118 262 166 338 10 17 23 39 29 50 136 259 512
669 780 850 122 82 305 189 396 230 54 25 107 50 116 55 9 5 59 26 110 45 51
20 107 42 125 50 18 8 72 23 120 35 48 11 106 25 128 30 48 11 190 36 260 46
28 3 68 10 90 14 58 11 511 10 570 -1z"/>
<path d="M5859 12014 c-103 -31 -192 -117 -226 -217 -17 -49 -18 -141 -21
-1442 -2 -1009 0 -1406 8 -1450 20 -101 47 -152 111 -205 100 -83 212 -109
325 -75 74 22 175 109 210 182 l29 58 5 448 c4 383 7 449 20 457 8 6 133 10
285 10 290 0 352 7 515 56 268 82 506 289 643 561 60 117 107 342 107 508 0
170 -47 391 -110 515 -37 73 -133 211 -186 267 -169 178 -420 307 -648 332
-55 6 -293 11 -558 10 -371 0 -472 -3 -509 -15z m974 -675 c174 -27 306 -150
336 -314 52 -282 -70 -496 -312 -548 -60 -13 -130 -17 -307 -17 -216 0 -230 1
-240 19 -6 13 -10 165 -10 427 0 365 2 409 17 426 15 16 35 18 230 18 118 0
247 -5 286 -11z"/>
</g>
</svg>
