<?xml version="1.0" encoding="UTF-8"?>
<svg version="1.1" xmlns="http://www.w3.org/2000/svg" width="512" height="512">
<path d="M0 0 C7.38169635 6.25457917 7.38169635 6.25457917 10.54858398 9.43505859 C11.14867783 10.03522797 11.74877167 10.63539734 12.36705017 11.25375366 C12.98713455 11.87899933 13.60721893 12.504245 14.24609375 13.1484375 C15.23005882 14.13452499 15.23005882 14.13452499 16.23390198 15.14053345 C18.30415268 17.21632862 20.37087651 19.29559427 22.4375 21.375 C23.85067862 22.7932008 25.26408794 24.21117176 26.67773438 25.62890625 C30.12116065 29.08328777 33.56143099 32.5407837 37 36 C35.2241334 39.81249879 32.99634812 42.23349496 29.9921875 45.203125 C29.50670441 45.6857782 29.02122131 46.1684314 28.52102661 46.66571045 C26.97700134 48.19858562 25.42615176 49.72434004 23.875 51.25 C22.82375991 52.29120361 21.77297343 53.33286541 20.72265625 54.375 C18.15366996 56.92199464 15.57851839 59.46265177 13 62 C14.65236651 66.29067546 17.8905207 69.1429553 21.1015625 72.296875 C21.99625748 73.18732513 21.99625748 73.18732513 22.9090271 74.09576416 C24.8096981 75.98526627 26.71721474 77.86768392 28.625 79.75 C29.91712468 81.03209065 31.20879676 82.31463761 32.5 83.59765625 C35.66144479 86.73708432 38.8290461 89.87017801 42 93 C46.29067546 91.34763349 49.1429553 88.1094793 52.296875 84.8984375 C53.18732513 84.00374252 53.18732513 84.00374252 54.09576416 83.0909729 C55.98526627 81.1903019 57.86768392 79.28278526 59.75 77.375 C61.03209065 76.08287532 62.31463761 74.79120324 63.59765625 73.5 C66.73708432 70.33855521 69.87017801 67.1709539 73 64 C71.4152642 60.13671373 68.94043113 57.71123077 65.9921875 54.796875 C65.50670441 54.3142218 65.02122131 53.8315686 64.52102661 53.33428955 C62.97700134 51.80141438 61.42615176 50.27565996 59.875 48.75 C58.82375991 47.70879639 57.77297343 46.66713459 56.72265625 45.625 C54.15366996 43.07800536 51.57851839 40.53734823 49 38 C50.3761536 34.90820864 51.95158445 32.80361247 54.34814453 30.42480469 C55.02869904 29.74440125 55.70925354 29.0639978 56.41043091 28.36297607 C57.5105098 27.27838104 57.5105098 27.27838104 58.6328125 26.171875 C59.38464813 25.42286926 60.13648376 24.67386353 60.91110229 23.90216064 C63.31107901 21.5133698 65.71792009 19.13163103 68.125 16.75 C69.75436352 15.13066831 71.38327534 13.51088198 73.01171875 11.890625 C77.00258911 7.9217939 80.99951372 3.95913546 85 0 C89.84529675 4.03884969 94.40762999 8.26710494 98.85327148 12.73974609 C99.82040825 13.70666382 99.82040825 13.70666382 100.80708313 14.69311523 C102.91413559 16.80085819 105.01763474 18.91210893 107.12109375 21.0234375 C108.59060627 22.49481727 110.06034135 23.9659748 111.5302887 25.43692017 C115.38099528 29.29142775 119.22868807 33.14892999 123.07574463 37.00708008 C127.00895449 40.95055623 130.9450298 44.89117004 134.88085938 48.83203125 C142.59003446 56.55190099 150.29602623 64.27493989 158 72 C156.6238464 75.09179136 155.04841555 77.19638753 152.65185547 79.57519531 C151.63102371 80.59580048 151.63102371 80.59580048 150.58956909 81.63702393 C149.85618317 82.36008728 149.12279724 83.08315063 148.3671875 83.828125 C147.61535187 84.57713074 146.86351624 85.32613647 146.08889771 86.09783936 C143.68892099 88.4866302 141.28207991 90.86836897 138.875 93.25 C137.24563648 94.86933169 135.61672466 96.48911802 133.98828125 98.109375 C129.99741194 102.07820505 126.00088585 106.04126899 122 110 C117.90507084 106.55286117 113.93506454 103.05875464 110.16015625 99.2578125 C109.32548828 98.41992188 108.49082031 97.58203125 107.63085938 96.71875 C106.35952148 95.43484375 106.35952148 95.43484375 105.0625 94.125 C104.18787109 93.24585938 103.31324219 92.36671875 102.41210938 91.4609375 C100.27242952 89.3095654 98.13513403 87.15588208 96 85 C89.07189276 90.66574049 82.85795858 97.03033639 76.5625 103.375 C75.43838533 104.50413955 74.31403826 105.63304778 73.18945312 106.76171875 C70.45694765 109.50515188 67.72760991 112.25169985 65 115 C72.32481593 123.73329294 80.28660996 131.84751971 88.25561523 139.99023438 C90.1302163 141.90955413 91.98746943 143.84356375 93.83178711 145.79199219 C96.51683599 148.61725312 99.23950327 151.40103138 101.97265625 154.1796875 C102.78356216 155.04939178 103.59446808 155.91909607 104.4299469 156.81515503 C109.07128096 161.44303002 112.15256103 163.4800929 118.79077148 163.92236328 C119.84449448 163.91165802 120.89821747 163.90095276 121.98387146 163.8899231 C128.861828 164.14094163 134.29811737 167.89753508 138.9375 172.75 C143.6911939 178.725752 145.58047214 185.2015452 145.2890625 192.8046875 C144.24984805 200.69709993 140.32033408 207.38018175 134.0625 212.25 C126.84199667 217.59001439 119.7795397 217.91054178 111 217 C102.89109593 214.64403463 97.06623679 209.41965839 92.94140625 202.12890625 C91.19768869 198.11585291 91.01090443 194.78313018 91.06469727 190.43652344 C90.41140877 182.26851881 85.53854679 178.1347019 79.83984375 172.765625 C78.80754555 171.75388347 77.77767878 170.73965571 76.75013733 169.7230835 C74.05958409 167.07421707 71.33767935 164.46007684 68.60748291 161.85217285 C65.81922335 159.17713124 63.06244885 156.47005063 60.30273438 153.765625 C54.89853637 148.47884341 49.46076048 143.22840502 44 138 C40.55582012 139.49418986 38.2244737 141.4694965 35.52270508 144.05981445 C34.20663017 145.3180175 34.20663017 145.3180175 32.8639679 146.60163879 C28.88212325 150.46758224 24.90906809 154.34190871 20.9543457 158.2355957 C18.87018112 160.284214 16.77041262 162.31447755 14.65454102 164.33032227 C12.08750376 166.77618282 9.55192508 169.25096592 7.03513145 171.74846458 C5.61598659 173.14242841 4.1678306 174.50666105 2.7191925 175.86994934 C-2.09212481 180.71202737 -4.51075934 183.93190099 -4.98950195 190.86401367 C-4.97554886 191.9148967 -4.96159576 192.96577972 -4.94721985 194.04850769 C-5.05155881 199.88319405 -7.63197305 204.32796706 -11.25 208.75 C-19.96716947 215.88222957 -26.71211814 217.72306717 -38 217 C-44.0727326 215.8271973 -48.97076163 212.65666235 -53 208 C-57.65843072 201.03040986 -60.0404098 193.7180246 -58.51953125 185.359375 C-56.09774774 176.42152203 -51.78831645 170.902058 -44 166 C-41.01733437 164.57645504 -38.76736045 163.97613236 -35.46026611 164.07899475 C-28.07132751 164.14597149 -24.17397404 162.35009699 -18.90735245 157.18284702 C-17.4344114 155.6798541 -15.99094104 154.15180621 -14.546875 152.62109375 C-13.51271215 151.56637544 -12.47606457 150.51408827 -11.43707275 149.46412659 C-8.72904456 146.71440251 -6.05570496 143.93328896 -3.38861084 141.1439209 C-0.65323061 138.29534339 2.11416374 135.47823875 4.87890625 132.65820312 C10.28415235 127.13552432 15.65308787 121.57923873 21 116 C17.22875755 111.49545175 13.3393403 107.19806124 9.1640625 103.06640625 C8.63984711 102.5436058 8.11563171 102.02080536 7.57553101 101.48216248 C5.9277213 99.83987655 4.27644099 98.2011335 2.625 96.5625 C1.49586045 95.43838533 0.36695222 94.31403826 -0.76171875 93.18945312 C-3.50515188 90.45694765 -6.25169985 87.72760991 -9 85 C-14.99500997 89.96194855 -20.46427037 95.3476624 -25.9375 100.875 C-26.81212891 101.75414062 -27.68675781 102.63328125 -28.58789062 103.5390625 C-30.72757048 105.6904346 -32.86486597 107.84411792 -35 110 C-39.98592875 105.82222235 -44.66704284 101.46872723 -49.24609375 96.8515625 C-49.90207047 96.19417084 -50.55804718 95.53677917 -51.23390198 94.85946655 C-53.30415268 92.78367138 -55.37087651 90.70440573 -57.4375 88.625 C-58.85067862 87.2067992 -60.26408794 85.78882824 -61.67773438 84.37109375 C-65.12116065 80.91671223 -68.56143099 77.4592163 -72 74 C-70.70005304 71.13643903 -69.32621927 69.07773819 -67.10202026 66.86151123 C-66.51028015 66.26702179 -65.91854004 65.67253235 -65.30886841 65.06002808 C-64.66150726 64.41985748 -64.01414612 63.77968689 -63.34716797 63.12011719 C-62.66412598 62.43678314 -61.98108398 61.7534491 -61.27734375 61.04940796 C-59.02033362 58.79379024 -56.7563237 56.54533778 -54.4921875 54.296875 C-52.92519314 52.73361108 -51.35864001 51.16990477 -49.79251099 49.60577393 C-45.67051858 45.49141555 -41.54255516 41.3830988 -37.41333008 37.27600098 C-33.20032416 33.08345834 -28.99297842 28.88524412 -24.78515625 24.6875 C-16.5289751 16.45276472 -8.26647643 8.22439935 0 0 Z M-41 177 C-45.33305105 181.05046077 -47.55552781 185.11929107 -48 191 C-47.14610351 196.03798927 -45.61701812 199.38298188 -42 203 C-37.38362057 206.04261372 -33.38560675 206.77708153 -28 206 C-22.73405656 204.14143173 -20.20604232 201.39685804 -17 197 C-15.4728453 192.41853591 -15.02454687 188.27470814 -16.94140625 183.8046875 C-20.1519258 178.34982357 -23.10639374 175.76434882 -29.3125 174.125 C-33.87092717 173.97047705 -37.053298 174.72815893 -41 177 Z M106.1875 179.375 C102.25460857 184.09446971 101.46283752 187.87634775 102 194 C103.89327496 199.2590971 106.59783215 201.79008594 111 205 C115.35250507 206.45083502 119.58113755 206.85342929 123.9375 205.31640625 C128.27141192 203.06538735 130.75139649 200.41072226 133 196 C134.37617986 191.04575249 134.06949612 187.49432734 132.06640625 182.859375 C129.3875545 178.18855657 125.60282504 175.92537301 120.5625 174.5 C114.56165959 173.44102816 110.75560331 175.51749054 106.1875 179.375 Z " fill="#000000" transform="translate(213,160)"/>
<path d="M0 0 C2.86356097 1.29994696 4.92226181 2.67378073 7.13848877 4.89797974 C7.73297821 5.48971985 8.32746765 6.08145996 8.93997192 6.69113159 C9.58014252 7.33849274 10.22031311 7.98585388 10.87988281 8.65283203 C11.56321686 9.33587402 12.2465509 10.01891602 12.95059204 10.72265625 C15.20620976 12.97966638 17.45466222 15.2436763 19.703125 17.5078125 C21.26638892 19.07480686 22.83009523 20.64135999 24.39422607 22.20748901 C28.50858445 26.32948142 32.6169012 30.45744484 36.72399902 34.58666992 C40.91654166 38.79967584 45.11475588 43.00702158 49.3125 47.21484375 C57.54723528 55.4710249 65.77560065 63.73352357 74 72 C73.09827532 73.17825358 72.17798498 74.34231577 71.25 75.5 C70.48429687 76.47453125 70.48429687 76.47453125 69.703125 77.46875 C68 79 68 79 64 79 C62.39897537 77.89116669 62.39897537 77.89116669 60.82354736 76.30456543 C60.22064377 75.70716049 59.61774017 75.10975555 58.99656677 74.49424744 C58.34704544 73.830345 57.69752411 73.16644257 57.02832031 72.48242188 C55.98868889 71.44366661 55.98868889 71.44366661 54.92805481 70.38392639 C52.63513935 68.08821998 50.35672265 65.77866103 48.078125 63.46875 C46.49287708 61.87604336 44.90674484 60.28421645 43.31976318 58.6932373 C39.14176392 54.49995299 34.97591429 50.29479591 30.81243896 46.08709717 C26.56318881 41.79695672 22.30261693 37.51809333 18.04296875 33.23828125 C9.68416035 24.83655123 1.33813731 16.42224149 -7 8 C-6.02133662 6.85373678 -5.04205413 5.70800212 -4.0625 4.5625 C-3.51722656 3.92441406 -2.97195313 3.28632813 -2.41015625 2.62890625 C-1.63204305 1.73008851 -0.84063472 0.84063472 0 0 Z " fill="#000000" transform="translate(310,148)"/>
<path d="M0 0 C4 2 4 2 9 8 C-14.76 31.76 -38.52 55.52 -63 80 C-67 78 -67 78 -72 72 C-48.24 48.24 -24.48 24.48 0 0 Z " fill="#000000" transform="translate(200,148)"/>
<path d="M0 0 C2.86356097 1.29994696 4.92226181 2.67378073 7.13848877 4.89797974 C7.73297821 5.48971985 8.32746765 6.08145996 8.93997192 6.69113159 C9.58014252 7.33849274 10.22031311 7.98585388 10.87988281 8.65283203 C11.56321686 9.33587402 12.2465509 10.01891602 12.95059204 10.72265625 C15.20620976 12.97966638 17.45466222 15.2436763 19.703125 17.5078125 C21.26638892 19.07480686 22.83009523 20.64135999 24.39422607 22.20748901 C28.50858445 26.32948142 32.6169012 30.45744484 36.72399902 34.58666992 C40.91654166 38.79967584 45.11475588 43.00702158 49.3125 47.21484375 C57.54723528 55.4710249 65.77560065 63.73352357 74 72 C73.09827532 73.17825358 72.17798498 74.34231577 71.25 75.5 C70.48429687 76.47453125 70.48429687 76.47453125 69.703125 77.46875 C68 79 68 79 64 79 C62.39897537 77.89116669 62.39897537 77.89116669 60.82354736 76.30456543 C60.22064377 75.70716049 59.61774017 75.10975555 58.99656677 74.49424744 C58.34704544 73.830345 57.69752411 73.16644257 57.02832031 72.48242188 C55.98868889 71.44366661 55.98868889 71.44366661 54.92805481 70.38392639 C52.63513935 68.08821998 50.35672265 65.77866103 48.078125 63.46875 C46.49287708 61.87604336 44.90674484 60.28421645 43.31976318 58.6932373 C39.14176392 54.49995299 34.97591429 50.29479591 30.81243896 46.08709717 C26.56318881 41.79695672 22.30261693 37.51809333 18.04296875 33.23828125 C9.68416035 24.83655123 1.33813731 16.42224149 -7 8 C-6.02133662 6.85373678 -5.04205413 5.70800212 -4.0625 4.5625 C-3.51722656 3.92441406 -2.97195313 3.28632813 -2.41015625 2.62890625 C-1.63204305 1.73008851 -0.84063472 0.84063472 0 0 Z " fill="#000000" transform="translate(323,135)"/>
<path d="M0 0 C4.63268926 1.71581084 5.37625207 3.65150248 9 8 C-14.76 31.76 -38.52 55.52 -63 80 C-66.57844494 78.21077753 -68.5597889 77.07285842 -71 74 C-70.63141029 70.76887215 -69.49138994 69.11844867 -67.22227478 66.86151123 C-66.33672661 65.96977707 -66.33672661 65.96977707 -65.43328857 65.06002808 C-64.78233215 64.41985748 -64.13137573 63.77968689 -63.46069336 63.12011719 C-62.43634941 62.09511612 -62.43634941 62.09511612 -61.39131165 61.04940796 C-59.13119352 58.79138069 -56.86063299 56.54416637 -54.58984375 54.296875 C-53.02120313 52.73382925 -51.45322332 51.17012005 -49.88587952 49.60577393 C-45.75783775 45.4891894 -41.62086623 41.38169305 -37.48199463 37.27600098 C-33.26057948 33.08526751 -29.04763855 28.88603425 -24.83398438 24.6875 C-16.56427899 16.44997431 -8.28511859 8.22202122 0 0 Z " fill="#000000" transform="translate(187,135)"/>
</svg>
